<?xml version="1.0" standalone="no"?>
<!DOCTYPE svg PUBLIC "-//W3C//DTD SVG 20010904//EN"
 "http://www.w3.org/TR/2001/REC-SVG-20010904/DTD/svg10.dtd">
<svg version="1.0" xmlns="http://www.w3.org/2000/svg"
 width="381.000000pt" height="381.000000pt" viewBox="0 0 381.000000 381.000000"
 preserveAspectRatio="xMidYMid meet">
<metadata>
Created by potrace 1.11, written by Peter Selinger 2001-2013
</metadata>
<g transform="translate(0.000000,381.000000) scale(0.100000,-0.100000)"
fill="#000000" stroke="none">
<path d="M60 3795 c0 -8 7 -15 15 -15 8 0 15 -7 15 -15 0 -8 7 -15 15 -15 8 0
15 -7 15 -15 0 -8 7 -15 15 -15 8 0 15 -7 15 -15 0 -8 7 -15 15 -15 10 0 15
-10 15 -30 0 -20 5 -30 15 -30 10 0 15 -10 15 -30 0 -27 -3 -30 -30 -30 -20 0
-30 5 -30 15 0 8 -7 15 -15 15 -8 0 -15 7 -15 15 0 10 -10 15 -30 15 -20 0
-30 5 -30 15 0 8 -7 15 -15 15 -8 0 -15 7 -15 15 0 8 -7 15 -15 15 -13 0 -15
-48 -15 -375 0 -327 2 -375 15 -375 8 0 15 7 15 15 0 8 7 15 15 15 8 0 15 7
15 15 0 8 7 15 15 15 8 0 15 7 15 15 0 8 7 15 15 15 10 0 15 10 15 30 0 20 5
30 15 30 8 0 15 7 15 15 0 8 7 15 15 15 8 0 15 7 15 15 0 8 7 15 15 15 8 0 15
7 15 15 0 8 7 15 15 15 8 0 15 7 15 15 0 8 7 15 15 15 8 0 15 7 15 15 0 10 10
15 30 15 20 0 30 5 30 15 0 10 10 15 30 15 20 0 30 5 30 15 0 10 10 15 30 15
20 0 30 5 30 15 0 10 10 15 30 15 20 0 30 5 30 15 0 10 10 15 30 15 20 0 30 5
30 15 0 10 -10 15 -30 15 -20 0 -30 -5 -30 -15 0 -10 -10 -15 -30 -15 -20 0
-30 -5 -30 -15 0 -10 -10 -15 -30 -15 -20 0 -30 -5 -30 -15 0 -8 -7 -15 -15
-15 -8 0 -15 7 -15 15 0 8 7 15 15 15 8 0 15 7 15 15 0 8 7 15 15 15 8 0 15 7
15 15 0 8 7 15 15 15 10 0 15 10 15 30 0 20 5 30 15 30 8 0 15 7 15 15 0 8 7
15 15 15 8 0 15 7 15 15 0 8 7 15 15 15 8 0 15 7 15 15 0 8 7 15 15 15 8 0 15
7 15 15 0 8 7 15 15 15 8 0 15 7 15 15 0 8 7 15 15 15 8 0 15 7 15 15 0 8 7
15 15 15 8 0 15 7 15 15 0 8 7 15 15 15 8 0 15 7 15 15 0 8 7 15 15 15 8 0 15
7 15 15 0 8 7 15 15 15 8 0 15 7 15 15 0 8 7 15 15 15 10 0 15 10 15 30 0 20
-5 30 -15 30 -8 0 -15 -7 -15 -15 0 -8 -7 -15 -15 -15 -8 0 -15 -7 -15 -15 0
-10 -10 -15 -30 -15 -20 0 -30 5 -30 15 0 8 -7 15 -15 15 -8 0 -15 7 -15 15 0
13 -38 15 -285 15 -247 0 -285 -2 -285 -15z"/>
<path d="M1650 3795 c0 -10 -10 -15 -30 -15 -20 0 -30 -5 -30 -15 0 -11 -12
-15 -45 -15 -33 0 -45 -4 -45 -15 0 -10 -10 -15 -30 -15 -20 0 -30 -5 -30 -15
0 -10 -10 -15 -30 -15 -20 0 -30 -5 -30 -15 0 -10 -10 -15 -30 -15 -20 0 -30
-5 -30 -15 0 -11 12 -15 45 -15 33 0 45 4 45 15 0 11 12 15 45 15 33 0 45 4
45 15 0 11 12 15 45 15 33 0 45 4 45 15 0 10 10 15 30 15 20 0 30 5 30 15 0
11 12 15 45 15 33 0 45 4 45 15 0 11 12 15 45 15 33 0 45 4 45 15 0 12 -17 15
-90 15 -73 0 -90 -3 -90 -15z"/>
<path d="M2130 3780 c0 -20 -5 -30 -15 -30 -8 0 -15 -7 -15 -15 0 -10 -10 -15
-30 -15 -20 0 -30 -5 -30 -15 0 -10 -10 -15 -30 -15 -20 0 -30 -5 -30 -15 0
-11 -12 -15 -45 -15 -33 0 -45 -4 -45 -15 0 -10 -10 -15 -30 -15 -20 0 -30 -5
-30 -15 0 -11 -12 -15 -45 -15 -33 0 -45 -4 -45 -15 0 -10 -10 -15 -30 -15
-20 0 -30 -5 -30 -15 0 -10 -10 -15 -30 -15 -20 0 -30 -5 -30 -15 0 -11 -12
-15 -45 -15 -33 0 -45 -4 -45 -15 0 -10 -10 -15 -30 -15 -20 0 -30 -5 -30 -15
0 -10 -10 -15 -30 -15 -20 0 -30 -5 -30 -15 0 -11 -12 -15 -45 -15 -33 0 -45
-4 -45 -15 0 -10 -10 -15 -30 -15 -20 0 -30 -5 -30 -15 0 -10 -10 -15 -30 -15
-20 0 -30 -5 -30 -15 0 -10 -10 -15 -30 -15 -20 0 -30 -5 -30 -15 0 -11 -12
-15 -45 -15 -33 0 -45 -4 -45 -15 0 -10 -10 -15 -30 -15 -20 0 -30 -5 -30 -15
0 -11 -12 -15 -45 -15 -33 0 -45 -4 -45 -15 0 -10 -10 -15 -30 -15 -20 0 -30
-5 -30 -15 0 -10 -10 -15 -30 -15 -20 0 -30 -5 -30 -15 0 -11 -12 -15 -45 -15
-33 0 -45 -4 -45 -15 0 -10 -10 -15 -30 -15 -20 0 -30 -5 -30 -15 0 -11 -12
-15 -45 -15 -33 0 -45 -4 -45 -15 0 -10 -10 -15 -30 -15 -20 0 -30 -5 -30 -15
0 -10 -10 -15 -30 -15 -20 0 -30 -5 -30 -15 0 -11 -12 -15 -45 -15 -33 0 -45
-4 -45 -15 0 -10 -10 -15 -30 -15 -20 0 -30 -5 -30 -15 0 -10 -10 -15 -30 -15
-20 0 -30 -5 -30 -15 0 -8 -7 -15 -15 -15 -8 0 -15 -7 -15 -15 0 -8 -7 -15
-15 -15 -10 0 -15 -10 -15 -30 0 -20 -5 -30 -15 -30 -11 0 -15 -12 -15 -45 0
-33 4 -45 15 -45 12 0 15 -15 15 -75 0 -60 3 -75 15 -75 12 0 15 -17 15 -90 0
-73 3 -90 15 -90 13 0 15 -32 15 -225 0 -193 2 -225 15 -225 8 0 15 7 15 15 0
8 7 15 15 15 8 0 15 7 15 15 0 8 7 15 15 15 8 0 15 7 15 15 0 8 7 15 15 15 10
0 15 10 15 30 0 20 5 30 15 30 10 0 15 10 15 30 0 20 5 30 15 30 11 0 15 12
15 45 0 33 4 45 15 45 11 0 15 12 15 45 0 33 4 45 15 45 12 0 15 13 15 60 0
47 3 60 15 60 12 0 15 13 15 60 0 47 3 60 15 60 11 0 15 12 15 45 0 33 4 45
15 45 10 0 15 10 15 30 0 20 5 30 15 30 10 0 15 10 15 30 0 20 5 30 15 30 10
0 15 10 15 30 0 20 5 30 15 30 8 0 15 7 15 15 0 8 7 15 15 15 10 0 15 10 15
30 0 20 5 30 15 30 8 0 15 7 15 15 0 8 7 15 15 15 8 0 15 7 15 15 0 8 7 15 15
15 8 0 15 7 15 15 0 8 7 15 15 15 8 0 15 7 15 15 0 8 7 15 15 15 8 0 15 7 15
15 0 10 10 15 30 15 20 0 30 5 30 15 0 11 12 15 45 15 33 0 45 4 45 15 0 8 7
15 15 15 10 0 15 -10 15 -30 0 -20 -5 -30 -15 -30 -11 0 -15 -12 -15 -45 0
-33 4 -45 15 -45 11 0 15 12 15 45 0 33 4 45 15 45 11 0 15 12 15 45 0 33 4
45 15 45 8 0 15 7 15 15 0 8 7 15 15 15 8 0 15 7 15 15 0 8 7 15 15 15 8 0 15
7 15 15 0 10 10 15 30 15 20 0 30 5 30 15 0 11 12 15 45 15 33 0 45 4 45 15 0
10 10 15 30 15 20 0 30 5 30 15 0 10 10 15 30 15 20 0 30 -5 30 -15 0 -8 7
-15 15 -15 12 0 15 -15 15 -75 0 -60 -3 -75 -15 -75 -12 0 -15 -17 -15 -90 0
-73 3 -90 15 -90 11 0 15 12 15 45 0 33 4 45 15 45 12 0 15 17 15 90 0 73 3
90 15 90 11 0 15 12 15 45 0 33 4 45 15 45 10 0 15 10 15 30 0 20 5 30 15 30
8 0 15 7 15 15 0 10 10 15 30 15 20 0 30 5 30 15 0 10 10 15 30 15 20 0 30 5
30 15 0 11 12 15 45 15 33 0 45 -4 45 -15 0 -10 10 -15 30 -15 20 0 30 -5 30
-15 0 -11 12 -15 45 -15 33 0 45 -4 45 -15 0 -11 12 -15 45 -15 l45 0 0 -60
c0 -47 3 -60 15 -60 12 0 15 -13 15 -60 0 -47 3 -60 15 -60 12 0 15 15 15 75
0 60 3 75 15 75 11 0 15 -12 15 -45 0 -33 4 -45 15 -45 13 0 15 -23 15 -150 0
-127 2 -150 15 -150 13 0 15 27 15 180 0 153 -2 180 -15 180 -11 0 -15 12 -15
45 0 33 -4 45 -15 45 -8 0 -15 7 -15 15 0 8 -7 15 -15 15 -8 0 -15 7 -15 15 0
8 -7 15 -15 15 -8 0 -15 7 -15 15 0 8 7 15 15 15 8 0 15 7 15 15 0 10 10 15
30 15 20 0 30 5 30 15 0 12 17 15 90 15 73 0 90 -3 90 -15 0 -12 17 -15 90
-15 73 0 90 -3 90 -15 0 -10 10 -15 30 -15 20 0 30 -5 30 -15 0 -11 12 -15 45
-15 33 0 45 -4 45 -15 0 -8 7 -15 15 -15 8 0 15 -7 15 -15 0 -8 7 -15 15 -15
8 0 15 -7 15 -15 0 -10 10 -15 30 -15 20 0 30 -5 30 -15 0 -10 10 -15 30 -15
20 0 30 -5 30 -15 0 -8 7 -15 15 -15 8 0 15 -7 15 -15 0 -8 7 -15 15 -15 8 0
15 -7 15 -15 0 -8 7 -15 15 -15 8 0 15 -7 15 -15 0 -8 7 -15 15 -15 8 0 15 7
15 15 0 8 -7 15 -15 15 -8 0 -15 7 -15 15 0 8 -7 15 -15 15 -10 0 -15 10 -15
30 0 29 2 30 45 30 33 0 45 -4 45 -15 0 -10 10 -15 30 -15 20 0 30 -5 30 -15
0 -10 10 -15 30 -15 20 0 30 -5 30 -15 0 -8 7 -15 15 -15 8 0 15 -7 15 -15 0
-8 7 -15 15 -15 8 0 15 -7 15 -15 0 -8 7 -15 15 -15 8 0 15 -7 15 -15 0 -8 7
-15 15 -15 8 0 15 -7 15 -15 0 -8 7 -15 15 -15 8 0 15 -7 15 -15 0 -8 7 -15
15 -15 10 0 15 -10 15 -30 0 -20 5 -30 15 -30 10 0 15 -10 15 -30 0 -20 5 -30
15 -30 10 0 15 -10 15 -30 0 -20 5 -30 15 -30 11 0 15 -12 15 -45 0 -33 4 -45
15 -45 12 0 15 -15 15 -75 0 -60 3 -75 15 -75 12 0 15 -15 15 -75 0 -60 3 -75
15 -75 12 0 15 -15 15 -75 0 -60 3 -75 15 -75 12 0 15 -15 15 -75 0 -60 3 -75
15 -75 11 0 15 12 15 45 0 33 4 45 15 45 12 0 15 -13 15 -60 0 -47 3 -60 15
-60 11 0 15 -12 15 -45 0 -33 4 -45 15 -45 11 0 15 -12 15 -45 0 -33 4 -45 15
-45 11 0 15 -12 15 -45 0 -33 4 -45 15 -45 12 0 15 -13 15 -60 0 -47 3 -60 15
-60 11 0 15 -12 15 -45 0 -33 4 -45 15 -45 12 0 15 13 15 60 0 47 3 60 15 60
13 0 15 33 15 240 0 207 -2 240 -15 240 -12 0 -15 13 -15 60 0 47 -3 60 -15
60 -12 0 -15 -17 -15 -90 0 -73 -3 -90 -15 -90 -8 0 -15 -7 -15 -15 0 -8 -7
-15 -15 -15 -13 0 -15 37 -15 270 0 233 2 270 15 270 8 0 15 -7 15 -15 0 -8 7
-15 15 -15 10 0 15 -10 15 -30 0 -20 5 -30 15 -30 8 0 15 -7 15 -15 0 -10 10
-15 30 -15 27 0 30 3 30 30 0 20 -5 30 -15 30 -10 0 -15 10 -15 30 0 20 -5 30
-15 30 -10 0 -15 10 -15 30 0 20 -5 30 -15 30 -12 0 -15 18 -15 105 0 87 3
105 15 105 8 0 15 7 15 15 0 8 7 15 15 15 8 0 15 7 15 15 0 8 7 15 15 15 10 0
15 10 15 30 l0 30 -60 0 c-47 0 -60 3 -60 15 0 11 -12 15 -45 15 -33 0 -45 4
-45 15 0 12 -13 15 -60 15 -47 0 -60 3 -60 15 0 12 -13 15 -60 15 -47 0 -60 3
-60 15 0 11 -12 15 -45 15 -33 0 -45 4 -45 15 0 10 -10 15 -30 15 -20 0 -30 5
-30 15 0 10 -10 15 -30 15 -20 0 -30 5 -30 15 0 11 -12 15 -45 15 -33 0 -45 4
-45 15 0 10 -10 15 -30 15 -20 0 -30 5 -30 15 0 10 -10 15 -30 15 -20 0 -30 5
-30 15 0 11 -12 15 -45 15 -33 0 -45 4 -45 15 0 10 -10 15 -30 15 -20 0 -30 5
-30 15 0 10 -10 15 -30 15 -20 0 -30 5 -30 15 0 10 -10 15 -30 15 -20 0 -30 5
-30 15 0 11 -12 15 -45 15 -33 0 -45 4 -45 15 0 10 -10 15 -30 15 -20 0 -30 5
-30 15 0 10 -10 15 -30 15 -20 0 -30 5 -30 15 0 11 -12 15 -45 15 -33 0 -45 4
-45 15 0 11 -12 15 -45 15 -43 0 -45 1 -45 30 0 20 5 30 15 30 10 0 15 10 15
30 0 20 -5 30 -15 30 -10 0 -15 -10 -15 -30 0 -27 -3 -30 -30 -30 -27 0 -30 3
-30 30 0 20 -5 30 -15 30 -10 0 -15 -10 -15 -30z m-90 -390 c0 -20 -5 -30 -15
-30 -10 0 -15 10 -15 30 0 20 5 30 15 30 10 0 15 -10 15 -30z m-1620 -825 c0
-33 -4 -45 -15 -45 -12 0 -15 -17 -15 -90 0 -73 -3 -90 -15 -90 -12 0 -15 -15
-15 -75 0 -60 -3 -75 -15 -75 -10 0 -15 -10 -15 -30 0 -27 -3 -30 -30 -30 -27
0 -30 3 -30 30 0 20 5 30 15 30 12 0 15 18 15 105 0 87 3 105 15 105 12 0 15
15 15 75 0 60 3 75 15 75 10 0 15 10 15 30 0 27 3 30 30 30 29 0 30 -2 30 -45z"/>
<path d="M3210 3795 c0 -10 10 -15 30 -15 20 0 30 -5 30 -15 0 -8 7 -15 15
-15 8 0 15 -7 15 -15 0 -8 7 -15 15 -15 10 0 15 -10 15 -30 0 -20 5 -30 15
-30 11 0 15 -12 15 -45 0 -43 -1 -45 -30 -45 -20 0 -30 5 -30 15 0 11 -12 15
-45 15 -33 0 -45 4 -45 15 0 10 -10 15 -30 15 -20 0 -30 -5 -30 -15 0 -10 10
-15 30 -15 20 0 30 -5 30 -15 0 -10 10 -15 30 -15 20 0 30 -5 30 -15 0 -10 10
-15 30 -15 20 0 30 -5 30 -15 0 -10 10 -15 30 -15 20 0 30 -5 30 -15 0 -10 10
-15 30 -15 20 0 30 -5 30 -15 0 -10 10 -15 30 -15 20 0 30 -5 30 -15 0 -11 12
-15 45 -15 33 0 45 -4 45 -15 0 -10 10 -15 30 -15 20 0 30 -5 30 -15 0 -10 10
-15 30 -15 20 0 30 -5 30 -15 0 -10 10 -15 30 -15 20 0 30 -5 30 -15 0 -8 7
-15 15 -15 13 0 15 28 15 195 0 167 -2 195 -15 195 -8 0 -15 -7 -15 -15 0 -8
-7 -15 -15 -15 -8 0 -15 -7 -15 -15 0 -10 -10 -15 -30 -15 -20 0 -30 -5 -30
-15 0 -8 -7 -15 -15 -15 -8 0 -15 -7 -15 -15 0 -10 -10 -15 -30 -15 -27 0 -30
3 -30 30 0 20 5 30 15 30 10 0 15 10 15 30 0 20 5 30 15 30 8 0 15 7 15 15 0
8 7 15 15 15 8 0 15 7 15 15 0 8 7 15 15 15 8 0 15 7 15 15 0 8 7 15 15 15 8
0 15 7 15 15 0 13 -22 15 -135 15 -113 0 -135 -2 -135 -15 0 -8 -7 -15 -15
-15 -8 0 -15 -7 -15 -15 0 -8 -7 -15 -15 -15 -8 0 -15 7 -15 15 0 8 -7 15 -15
15 -8 0 -15 7 -15 15 0 12 -17 15 -90 15 -73 0 -90 -3 -90 -15z"/>
<path d="M3060 3645 c0 -10 10 -15 30 -15 20 0 30 5 30 15 0 10 -10 15 -30 15
-20 0 -30 -5 -30 -15z"/>
<path d="M2040 3000 c0 -100 3 -120 15 -120 13 0 15 20 15 120 0 100 -2 120
-15 120 -12 0 -15 -20 -15 -120z"/>
<path d="M3000 3105 c0 -8 7 -15 15 -15 10 0 15 -10 15 -30 0 -20 5 -30 15
-30 10 0 15 -10 15 -30 0 -20 5 -30 15 -30 10 0 15 10 15 30 0 20 -5 30 -15
30 -10 0 -15 10 -15 30 0 20 -5 30 -15 30 -8 0 -15 7 -15 15 0 8 -7 15 -15 15
-8 0 -15 -7 -15 -15z"/>
<path d="M2550 2985 c0 -33 4 -45 15 -45 12 0 15 -17 15 -90 0 -73 3 -90 15
-90 8 0 15 7 15 15 0 10 10 15 30 15 20 0 30 -5 30 -15 0 -8 7 -15 15 -15 8 0
15 -7 15 -15 0 -10 10 -15 30 -15 20 0 30 -5 30 -15 0 -8 7 -15 15 -15 8 0 15
-7 15 -15 0 -8 7 -15 15 -15 8 0 15 7 15 15 0 8 -7 15 -15 15 -8 0 -15 7 -15
15 0 8 -7 15 -15 15 -8 0 -15 7 -15 15 0 8 -7 15 -15 15 -8 0 -15 7 -15 15 0
8 -7 15 -15 15 -8 0 -15 7 -15 15 0 8 -7 15 -15 15 -8 0 -15 7 -15 15 0 8 -7
15 -15 15 -8 0 -15 7 -15 15 0 8 -7 15 -15 15 -10 0 -15 10 -15 30 0 20 -5 30
-15 30 -11 0 -15 12 -15 45 0 33 -4 45 -15 45 -11 0 -15 -12 -15 -45z"/>
<path d="M3090 2910 c0 -20 5 -30 15 -30 10 0 15 10 15 30 0 20 -5 30 -15 30
-10 0 -15 -10 -15 -30z"/>
<path d="M3120 2790 c0 -47 3 -60 15 -60 12 0 15 13 15 60 0 47 -3 60 -15 60
-12 0 -15 -13 -15 -60z"/>
<path d="M925 2750 c-9 -15 4 -30 26 -30 22 0 24 11 7 28 -15 15 -25 15 -33 2z"/>
<path d="M0 1905 c0 -700 2 -795 15 -795 8 0 15 7 15 15 0 8 7 15 15 15 8 0
15 7 15 15 0 8 7 15 15 15 8 0 15 7 15 15 0 8 7 15 15 15 8 0 15 -7 15 -15 0
-8 7 -15 15 -15 10 0 15 10 15 30 0 20 5 30 15 30 10 0 15 10 15 30 0 20 5 30
15 30 10 0 15 10 15 30 0 20 5 30 15 30 10 0 15 10 15 30 0 20 5 30 15 30 12
0 15 13 15 60 0 47 3 60 15 60 11 0 15 12 15 45 0 33 4 45 15 45 13 0 15 20
15 120 0 100 3 120 15 120 8 0 15 7 15 15 0 10 10 15 30 15 l30 0 0 -90 c0
-73 3 -90 15 -90 12 0 15 -15 15 -75 0 -60 3 -75 15 -75 10 0 15 -10 15 -30 0
-20 5 -30 15 -30 10 0 15 10 15 30 0 20 -5 30 -15 30 -12 0 -15 17 -15 90 0
73 -3 90 -15 90 -12 0 -15 15 -15 75 0 60 3 75 15 75 11 0 15 12 15 45 0 33 4
45 15 45 8 0 15 7 15 15 0 8 7 15 15 15 8 0 15 7 15 15 0 8 7 15 15 15 10 0
15 -10 15 -30 0 -20 5 -30 15 -30 8 0 15 -7 15 -15 0 -8 7 -15 15 -15 13 0 15
20 15 120 0 100 -2 120 -15 120 -10 0 -15 -10 -15 -30 0 -20 -5 -30 -15 -30
-10 0 -15 -10 -15 -30 0 -20 -5 -30 -15 -30 -8 0 -15 -7 -15 -15 0 -8 -7 -15
-15 -15 -8 0 -15 -7 -15 -15 0 -8 -7 -15 -15 -15 -8 0 -15 -7 -15 -15 0 -8 -7
-15 -15 -15 -8 0 -15 -7 -15 -15 0 -8 -7 -15 -15 -15 -8 0 -15 -7 -15 -15 0
-10 -10 -15 -30 -15 -20 0 -30 -5 -30 -15 0 -10 -10 -15 -30 -15 -20 0 -30 -5
-30 -15 0 -12 -18 -15 -105 -15 -87 0 -105 3 -105 15 0 8 7 15 15 15 12 0 15
15 15 75 0 60 -3 75 -15 75 -13 0 -15 27 -15 180 0 153 -2 180 -15 180 -12 0
-15 15 -15 75 0 60 -3 75 -15 75 -12 0 -15 15 -15 75 0 60 -3 75 -15 75 -13 0
-15 -95 -15 -795z m210 -105 c0 -20 -5 -30 -15 -30 -13 0 -15 -28 -15 -195 0
-167 -2 -195 -15 -195 -12 0 -15 20 -15 120 0 100 -2 120 -15 120 -12 0 -15
18 -15 105 l0 105 45 0 c43 0 45 -1 45 -30z"/>
<path d="M2610 2565 l0 -135 -45 0 c-33 0 -45 -4 -45 -15 0 -11 -12 -15 -45
-15 -33 0 -45 -4 -45 -15 0 -11 -12 -15 -45 -15 -33 0 -45 -4 -45 -15 0 -10
-10 -15 -30 -15 -20 0 -30 -5 -30 -15 0 -10 -10 -15 -30 -15 -20 0 -30 -5 -30
-15 0 -8 -7 -15 -15 -15 -8 0 -15 -7 -15 -15 0 -8 -7 -15 -15 -15 -8 0 -15 -7
-15 -15 0 -8 -7 -15 -15 -15 -8 0 -15 -7 -15 -15 0 -11 12 -15 45 -15 33 0 45
4 45 15 0 10 10 15 30 15 20 0 30 5 30 15 0 10 10 15 30 15 20 0 30 5 30 15 0
10 10 15 30 15 20 0 30 5 30 15 0 10 10 15 30 15 20 0 30 5 30 15 0 10 10 15
30 15 20 0 30 5 30 15 0 10 10 15 30 15 l30 0 0 -60 c0 -47 3 -60 15 -60 10 0
15 10 15 30 0 20 5 30 15 30 8 0 15 -7 15 -15 0 -8 7 -15 15 -15 8 0 15 -7 15
-15 0 -8 7 -15 15 -15 8 0 15 7 15 15 0 8 -7 15 -15 15 -12 0 -15 13 -15 60 0
47 -3 60 -15 60 -13 0 -15 23 -15 150 0 127 -2 150 -15 150 -13 0 -15 -22 -15
-135z"/>
<path d="M3150 2580 c0 -100 3 -120 15 -120 13 0 15 20 15 120 0 100 -2 120
-15 120 -12 0 -15 -20 -15 -120z"/>
<path d="M2010 2595 c0 -60 3 -75 15 -75 8 0 15 7 15 15 0 8 7 15 15 15 8 0
15 7 15 15 0 8 7 15 15 15 10 0 15 10 15 30 0 20 -5 30 -15 30 -10 0 -15 -10
-15 -30 0 -20 -5 -30 -15 -30 -11 0 -15 12 -15 45 0 33 -4 45 -15 45 -12 0
-15 -15 -15 -75z"/>
<path d="M1320 2505 c0 -87 -3 -105 -15 -105 -8 0 -15 7 -15 15 0 12 -13 15
-60 15 -47 0 -60 -3 -60 -15 0 -10 10 -15 30 -15 20 0 30 -5 30 -15 0 -10 10
-15 30 -15 20 0 30 -5 30 -15 0 -8 7 -15 15 -15 12 0 15 -18 15 -105 0 -87 -3
-105 -15 -105 -10 0 -15 -10 -15 -30 0 -20 -5 -30 -15 -30 -8 0 -15 -7 -15
-15 0 -8 7 -15 15 -15 8 0 15 7 15 15 0 8 7 15 15 15 10 0 15 10 15 30 0 20 5
30 15 30 10 0 15 10 15 30 0 20 5 30 15 30 10 0 15 -10 15 -30 0 -20 5 -30 15
-30 10 0 15 10 15 30 0 20 -5 30 -15 30 -11 0 -15 12 -15 45 0 33 -4 45 -15
45 -8 0 -15 7 -15 15 0 10 10 15 30 15 20 0 30 -5 30 -15 0 -10 10 -15 30 -15
20 0 30 -5 30 -15 0 -10 10 -15 30 -15 20 0 30 -5 30 -15 0 -10 10 -15 30 -15
20 0 30 -5 30 -15 0 -11 12 -15 45 -15 33 0 45 4 45 15 0 8 -7 15 -15 15 -8 0
-15 7 -15 15 0 8 -7 15 -15 15 -8 0 -15 7 -15 15 0 8 -7 15 -15 15 -8 0 -15 7
-15 15 0 10 -10 15 -30 15 -20 0 -30 5 -30 15 0 10 -10 15 -30 15 -20 0 -30 5
-30 15 0 11 -12 15 -45 15 -33 0 -45 4 -45 15 0 8 -7 15 -15 15 -12 0 -15 18
-15 105 0 87 -3 105 -15 105 -12 0 -15 -18 -15 -105z"/>
<path d="M1920 2550 c0 -47 3 -60 15 -60 12 0 15 13 15 60 0 47 -3 60 -15 60
-12 0 -15 -13 -15 -60z"/>
<path d="M2880 2505 c0 -33 4 -45 15 -45 11 0 15 12 15 45 0 33 -4 45 -15 45
-11 0 -15 -12 -15 -45z"/>
<path d="M1740 2385 c0 -60 3 -75 15 -75 11 0 15 -12 15 -45 0 -33 4 -45 15
-45 10 0 15 -10 15 -30 0 -20 5 -30 15 -30 10 0 15 -10 15 -30 0 -20 5 -30 15
-30 8 0 15 -7 15 -15 0 -8 7 -15 15 -15 8 0 15 -7 15 -15 0 -8 7 -15 15 -15 8
0 15 -7 15 -15 0 -8 7 -15 15 -15 8 0 15 -7 15 -15 0 -10 10 -15 30 -15 20 0
30 -5 30 -15 0 -11 12 -15 45 -15 43 0 45 1 45 30 0 20 -5 30 -15 30 -10 0
-15 10 -15 30 0 20 -5 30 -15 30 -10 0 -15 10 -15 30 0 20 -5 30 -15 30 -10 0
-15 -10 -15 -30 0 -20 5 -30 15 -30 10 0 15 -10 15 -30 0 -20 -5 -30 -15 -30
-8 0 -15 7 -15 15 0 10 -10 15 -30 15 -20 0 -30 5 -30 15 0 8 -7 15 -15 15 -8
0 -15 7 -15 15 0 8 -7 15 -15 15 -8 0 -15 7 -15 15 0 8 -7 15 -15 15 -10 0
-15 10 -15 30 0 20 -5 30 -15 30 -11 0 -15 12 -15 45 0 33 -4 45 -15 45 -11 0
-15 12 -15 45 0 33 -4 45 -15 45 -11 0 -15 12 -15 45 0 33 -4 45 -15 45 -12 0
-15 -15 -15 -75z"/>
<path d="M1950 2400 c0 -47 3 -60 15 -60 12 0 15 13 15 60 0 47 -3 60 -15 60
-12 0 -15 -13 -15 -60z"/>
<path d="M2910 2340 c0 -73 3 -90 15 -90 12 0 15 17 15 90 0 73 -3 90 -15 90
-12 0 -15 -17 -15 -90z"/>
<path d="M750 2370 c0 -20 -5 -30 -15 -30 -12 0 -15 -15 -15 -75 0 -60 -3 -75
-15 -75 -13 0 -15 -25 -15 -165 0 -140 2 -165 15 -165 13 0 15 20 15 120 0
100 3 120 15 120 12 0 15 17 15 90 0 73 3 90 15 90 12 0 15 13 15 60 0 47 -3
60 -15 60 -10 0 -15 -10 -15 -30z"/>
<path d="M960 2355 c0 -33 -4 -45 -15 -45 -12 0 -15 -13 -15 -60 0 -47 -3 -60
-15 -60 -12 0 -15 -15 -15 -75 0 -60 -3 -75 -15 -75 -12 0 -15 -15 -15 -75 0
-60 -3 -75 -15 -75 -8 0 -15 -7 -15 -15 0 -10 10 -15 30 -15 27 0 30 -3 30
-30 0 -20 5 -30 15 -30 10 0 15 -10 15 -30 0 -20 5 -30 15 -30 10 0 15 -10 15
-30 0 -20 5 -30 15 -30 8 0 15 -7 15 -15 0 -8 7 -15 15 -15 10 0 15 10 15 30
0 20 -5 30 -15 30 -11 0 -15 12 -15 45 0 33 4 45 15 45 8 0 15 7 15 15 0 8 7
15 15 15 8 0 15 7 15 15 0 8 7 15 15 15 8 0 15 7 15 15 0 8 7 15 15 15 8 0 15
7 15 15 0 11 12 15 45 15 33 0 45 -4 45 -15 0 -8 -7 -15 -15 -15 -8 0 -15 -7
-15 -15 0 -8 7 -15 15 -15 8 0 15 7 15 15 0 8 7 15 15 15 8 0 15 7 15 15 0 10
10 15 30 15 l30 0 0 -60 c0 -47 -3 -60 -15 -60 -8 0 -15 -7 -15 -15 0 -10 -10
-15 -30 -15 -20 0 -30 5 -30 15 0 8 -7 15 -15 15 -12 0 -15 -17 -15 -90 0 -73
3 -90 15 -90 10 0 15 10 15 30 0 20 5 30 15 30 8 0 15 -7 15 -15 0 -8 7 -15
15 -15 8 0 15 -7 15 -15 0 -12 13 -15 60 -15 l60 0 0 45 c0 43 1 45 30 45 20
0 30 -5 30 -15 0 -8 7 -15 15 -15 12 0 15 17 15 90 0 73 -3 90 -15 90 -8 0
-15 7 -15 15 0 8 7 15 15 15 8 0 15 -7 15 -15 0 -10 10 -15 30 -15 20 0 30 -5
30 -15 0 -12 13 -15 60 -15 47 0 60 -3 60 -15 0 -8 7 -15 15 -15 8 0 15 -7 15
-15 0 -8 7 -15 15 -15 8 0 15 7 15 15 0 8 -7 15 -15 15 -10 0 -15 10 -15 30 0
20 -5 30 -15 30 -8 0 -15 7 -15 15 0 11 -12 15 -45 15 -33 0 -45 4 -45 15 0
10 10 15 30 15 20 0 30 5 30 15 0 11 -12 15 -45 15 -33 0 -45 4 -45 15 0 8 7
15 15 15 8 0 15 7 15 15 0 8 -7 15 -15 15 -8 0 -15 7 -15 15 0 11 -12 15 -45
15 -43 0 -45 1 -45 30 0 20 -5 30 -15 30 -10 0 -15 -10 -15 -30 0 -20 5 -30
15 -30 8 0 15 -7 15 -15 0 -8 7 -15 15 -15 8 0 15 -7 15 -15 0 -8 -7 -15 -15
-15 -8 0 -15 7 -15 15 0 12 -18 15 -105 15 -87 0 -105 3 -105 15 0 8 -7 15
-15 15 -8 0 -15 -7 -15 -15 0 -12 -18 -15 -105 -15 -87 0 -105 -3 -105 -15 0
-10 -10 -15 -30 -15 -20 0 -30 5 -30 15 0 8 7 15 15 15 10 0 15 10 15 30 0 20
5 30 15 30 13 0 15 25 15 165 0 140 -2 165 -15 165 -11 0 -15 -12 -15 -45z
m90 -480 c0 -8 -7 -15 -15 -15 -8 0 -15 -7 -15 -15 0 -8 -7 -15 -15 -15 -10 0
-15 10 -15 30 0 27 3 30 30 30 20 0 30 -5 30 -15z m300 -15 c0 -20 -5 -30 -15
-30 -10 0 -15 10 -15 30 0 20 5 30 15 30 10 0 15 -10 15 -30z"/>
<path d="M3180 2235 c0 -113 2 -135 15 -135 13 0 15 22 15 135 0 113 -2 135
-15 135 -13 0 -15 -22 -15 -135z"/>
<path d="M1980 2220 c0 -20 5 -30 15 -30 10 0 15 10 15 30 0 20 -5 30 -15 30
-10 0 -15 -10 -15 -30z"/>
<path d="M2550 2160 c0 -47 3 -60 15 -60 12 0 15 13 15 60 0 47 -3 60 -15 60
-12 0 -15 -13 -15 -60z"/>
<path d="M2250 2040 c0 -47 3 -60 15 -60 8 0 15 -7 15 -15 0 -10 -10 -15 -30
-15 -20 0 -30 -5 -30 -15 0 -10 10 -15 30 -15 20 0 30 -5 30 -15 0 -10 -10
-15 -30 -15 -27 0 -30 -3 -30 -30 0 -27 3 -30 30 -30 20 0 30 5 30 15 0 10 10
15 30 15 20 0 30 5 30 15 0 10 10 15 30 15 20 0 30 5 30 15 0 10 10 15 30 15
l30 0 0 -60 c0 -47 -3 -60 -15 -60 -8 0 -15 -7 -15 -15 0 -10 -10 -15 -30 -15
-20 0 -30 -5 -30 -15 0 -8 7 -15 15 -15 8 0 15 -7 15 -15 0 -8 7 -15 15 -15
11 0 15 -12 15 -45 l0 -45 60 0 60 0 0 45 c0 43 1 45 30 45 27 0 30 -3 30 -30
0 -20 5 -30 15 -30 13 0 15 20 15 120 0 100 -2 120 -15 120 -8 0 -15 7 -15 15
0 11 12 15 45 15 33 0 45 -4 45 -15 0 -11 12 -15 45 -15 43 0 45 -1 45 -30 0
-20 5 -30 15 -30 12 0 15 -13 15 -60 0 -47 -3 -60 -15 -60 -10 0 -15 -10 -15
-30 0 -20 5 -30 15 -30 8 0 15 7 15 15 0 8 7 15 15 15 10 0 15 10 15 30 0 20
5 30 15 30 12 0 15 13 15 60 l0 60 30 0 c29 0 30 -2 30 -45 0 -33 4 -45 15
-45 13 0 15 25 15 165 0 140 -2 165 -15 165 -12 0 -15 -13 -15 -60 l0 -60 -60
0 c-47 0 -60 3 -60 15 0 13 -22 15 -135 15 l-135 0 0 30 c0 20 -5 30 -15 30
-10 0 -15 -10 -15 -30 l0 -30 -75 0 c-60 0 -75 -3 -75 -15 0 -8 -7 -15 -15
-15 -8 0 -15 7 -15 15 0 8 7 15 15 15 8 0 15 7 15 15 0 11 -12 15 -45 15 -43
0 -45 1 -45 30 0 20 -5 30 -15 30 -12 0 -15 -13 -15 -60z m690 -105 c0 -8 -7
-15 -15 -15 -8 0 -15 7 -15 15 0 8 7 15 15 15 8 0 15 -7 15 -15z m-420 -75 c0
-20 -5 -30 -15 -30 -10 0 -15 10 -15 30 0 20 5 30 15 30 10 0 15 -10 15 -30z"/>
<path d="M3450 1860 c0 -100 -2 -120 -15 -120 -12 0 -15 -18 -15 -105 0 -87
-3 -105 -15 -105 -11 0 -15 -12 -15 -45 0 -33 -4 -45 -15 -45 -12 0 -15 20
-15 120 0 100 -2 120 -15 120 -13 0 -15 22 -15 135 0 113 -2 135 -15 135 -13
0 -15 -27 -15 -180 0 -153 2 -180 15 -180 12 0 15 -17 15 -90 0 -73 3 -90 15
-90 12 0 15 -18 15 -105 0 -87 3 -105 15 -105 12 0 15 17 15 90 0 73 3 90 15
90 10 0 15 10 15 30 0 20 5 30 15 30 12 0 15 13 15 60 0 47 3 60 15 60 13 0
15 -20 15 -120 0 -100 3 -120 15 -120 12 0 15 -18 15 -105 0 -87 3 -105 15
-105 12 0 15 -13 15 -60 0 -47 3 -60 15 -60 12 0 15 -15 15 -75 0 -60 -3 -75
-15 -75 -8 0 -15 -7 -15 -15 0 -8 -7 -15 -15 -15 -10 0 -15 -10 -15 -30 0 -20
-5 -30 -15 -30 -8 0 -15 -7 -15 -15 0 -8 -7 -15 -15 -15 -10 0 -15 -10 -15
-30 0 -20 -5 -30 -15 -30 -11 0 -15 12 -15 45 0 33 -4 45 -15 45 -12 0 -15
-13 -15 -60 0 -47 3 -60 15 -60 12 0 15 -13 15 -60 0 -47 3 -60 15 -60 12 0
15 -13 15 -60 0 -47 3 -60 15 -60 10 0 15 10 15 30 0 20 5 30 15 30 10 0 15
10 15 30 0 27 -3 30 -30 30 l-30 0 0 60 c0 47 3 60 15 60 10 0 15 10 15 30 0
20 5 30 15 30 8 0 15 7 15 15 0 8 7 15 15 15 10 0 15 10 15 30 0 20 5 30 15
30 8 0 15 7 15 15 0 8 7 15 15 15 10 0 15 10 15 30 0 20 5 30 15 30 8 0 15 7
15 15 0 8 7 15 15 15 10 0 15 10 15 30 0 20 5 30 15 30 8 0 15 7 15 15 0 8 7
15 15 15 10 0 15 10 15 30 0 20 5 30 15 30 10 0 15 10 15 30 0 27 3 30 30 30
20 0 30 5 30 15 0 8 -7 15 -15 15 -8 0 -15 7 -15 15 0 8 -7 15 -15 15 -10 0
-15 10 -15 30 0 20 -5 30 -15 30 -10 0 -15 10 -15 30 0 20 -5 30 -15 30 -10 0
-15 10 -15 30 0 20 -5 30 -15 30 -10 0 -15 10 -15 30 0 20 -5 30 -15 30 -11 0
-15 12 -15 45 0 33 -4 45 -15 45 -10 0 -15 10 -15 30 0 20 -5 30 -15 30 -10 0
-15 10 -15 30 0 20 -5 30 -15 30 -10 0 -15 10 -15 30 0 20 -5 30 -15 30 -11 0
-15 12 -15 45 0 33 -4 45 -15 45 -12 0 -15 18 -15 105 0 87 -3 105 -15 105
-12 0 -15 -20 -15 -120z m150 -405 c0 -33 4 -45 15 -45 11 0 15 -12 15 -45 0
-33 4 -45 15 -45 11 0 15 -12 15 -45 0 -33 4 -45 15 -45 12 0 15 -13 15 -60 0
-47 -3 -60 -15 -60 -12 0 -15 -13 -15 -60 l0 -60 -30 0 c-27 0 -30 3 -30 30 0
20 -5 30 -15 30 -12 0 -15 13 -15 60 0 47 3 60 15 60 10 0 15 10 15 30 0 20 5
30 15 30 10 0 15 10 15 30 0 20 -5 30 -15 30 -8 0 -15 -7 -15 -15 0 -8 -7 -15
-15 -15 -8 0 -15 -7 -15 -15 0 -8 -7 -15 -15 -15 -12 0 -15 20 -15 120 0 100
3 120 15 120 8 0 15 7 15 15 0 8 7 15 15 15 11 0 15 -12 15 -45z"/>
<path d="M1770 1800 c0 -20 -5 -30 -15 -30 -8 0 -15 -7 -15 -15 0 -11 12 -15
45 -15 43 0 45 1 45 30 0 20 -5 30 -15 30 -8 0 -15 7 -15 15 0 8 -7 15 -15 15
-10 0 -15 -10 -15 -30z"/>
<path d="M3780 1725 c0 -33 -4 -45 -15 -45 -10 0 -15 -10 -15 -30 0 -20 -5
-30 -15 -30 -10 0 -15 10 -15 30 0 20 -5 30 -15 30 -10 0 -15 -10 -15 -30 0
-20 5 -30 15 -30 12 0 15 -13 15 -60 0 -47 3 -60 15 -60 11 0 15 -12 15 -45 0
-33 4 -45 15 -45 11 0 15 -12 15 -45 0 -33 4 -45 15 -45 13 0 15 32 15 225 0
193 -2 225 -15 225 -11 0 -15 -12 -15 -45z"/>
<path d="M840 1680 c0 -47 3 -60 15 -60 12 0 15 13 15 60 0 47 -3 60 -15 60
-12 0 -15 -13 -15 -60z"/>
<path d="M2910 1695 c0 -33 4 -45 15 -45 11 0 15 12 15 45 0 33 -4 45 -15 45
-11 0 -15 -12 -15 -45z"/>
<path d="M660 1650 c0 -47 -3 -60 -15 -60 -10 0 -15 -10 -15 -30 0 -20 -5 -30
-15 -30 -10 0 -15 -10 -15 -30 0 -20 -5 -30 -15 -30 -8 0 -15 -7 -15 -15 0 -8
-7 -15 -15 -15 -11 0 -15 -12 -15 -45 0 -33 -4 -45 -15 -45 -11 0 -15 -12 -15
-45 0 -33 -4 -45 -15 -45 -12 0 -15 -13 -15 -60 0 -47 -3 -60 -15 -60 -12 0
-15 -15 -15 -75 0 -60 -3 -75 -15 -75 -12 0 -15 -17 -15 -90 0 -73 3 -90 15
-90 12 0 15 -18 15 -105 0 -87 3 -105 15 -105 13 0 15 25 15 165 0 140 2 165
15 165 12 0 15 17 15 90 0 73 3 90 15 90 12 0 15 13 15 60 0 47 3 60 15 60 11
0 15 12 15 45 0 33 4 45 15 45 11 0 15 12 15 45 0 33 4 45 15 45 10 0 15 -10
15 -30 0 -20 5 -30 15 -30 13 0 15 -58 15 -465 0 -407 2 -465 15 -465 13 0 15
-20 15 -120 0 -100 3 -120 15 -120 12 0 15 -17 15 -90 l0 -90 45 0 c43 0 45 1
45 30 0 20 -5 30 -15 30 -11 0 -15 12 -15 45 0 33 -4 45 -15 45 -12 0 -15 18
-15 105 0 87 3 105 15 105 10 0 15 -10 15 -30 0 -20 5 -30 15 -30 10 0 15 -10
15 -30 0 -27 3 -30 30 -30 20 0 30 -5 30 -15 0 -8 7 -15 15 -15 11 0 15 -12
15 -45 0 -33 4 -45 15 -45 8 0 15 -7 15 -15 0 -8 7 -15 15 -15 8 0 15 -7 15
-15 0 -11 12 -15 45 -15 33 0 45 -4 45 -15 0 -10 10 -15 30 -15 20 0 30 -5 30
-15 0 -13 25 -15 165 -15 140 0 165 2 165 15 0 11 -12 15 -45 15 -33 0 -45 4
-45 15 0 11 -12 15 -45 15 -33 0 -45 4 -45 15 0 8 -7 15 -15 15 -8 0 -15 7
-15 15 0 10 -10 15 -30 15 -20 0 -30 5 -30 15 0 10 -10 15 -30 15 -20 0 -30 5
-30 15 0 8 -7 15 -15 15 -8 0 -15 7 -15 15 0 10 -10 15 -30 15 -20 0 -30 5
-30 15 0 10 -10 15 -30 15 -20 0 -30 5 -30 15 0 10 -10 15 -30 15 -27 0 -30 3
-30 30 0 27 -3 30 -30 30 -27 0 -30 3 -30 30 0 20 -5 30 -15 30 -10 0 -15 10
-15 30 0 20 -5 30 -15 30 -12 0 -15 15 -15 75 0 60 3 75 15 75 12 0 15 13 15
60 0 47 3 60 15 60 8 0 15 -7 15 -15 0 -8 7 -15 15 -15 8 0 15 -7 15 -15 0 -8
7 -15 15 -15 10 0 15 -10 15 -30 0 -20 5 -30 15 -30 8 0 15 -7 15 -15 0 -8 7
-15 15 -15 10 0 15 -10 15 -30 0 -20 5 -30 15 -30 8 0 15 -7 15 -15 0 -8 7
-15 15 -15 8 0 15 -7 15 -15 0 -8 7 -15 15 -15 8 0 15 -7 15 -15 0 -8 7 -15
15 -15 10 0 15 -10 15 -30 0 -20 5 -30 15 -30 8 0 15 -7 15 -15 0 -8 7 -15 15
-15 8 0 15 -7 15 -15 0 -8 7 -15 15 -15 8 0 15 -7 15 -15 0 -10 10 -15 30 -15
20 0 30 -5 30 -15 0 -8 7 -15 15 -15 8 0 15 -7 15 -15 0 -8 7 -15 15 -15 8 0
15 -7 15 -15 0 -8 7 -15 15 -15 8 0 15 -7 15 -15 0 -8 7 -15 15 -15 8 0 15 -7
15 -15 0 -10 10 -15 30 -15 20 0 30 -5 30 -15 0 -8 7 -15 15 -15 8 0 15 -7 15
-15 0 -10 10 -15 30 -15 20 0 30 -5 30 -15 0 -12 15 -15 75 -15 60 0 75 3 75
15 0 11 -12 15 -45 15 -33 0 -45 4 -45 15 0 8 -7 15 -15 15 -8 0 -15 7 -15 15
0 10 -10 15 -30 15 -20 0 -30 5 -30 15 0 8 -7 15 -15 15 -8 0 -15 7 -15 15 0
10 -10 15 -30 15 -20 0 -30 5 -30 15 0 8 -7 15 -15 15 -8 0 -15 7 -15 15 0 8
-7 15 -15 15 -8 0 -15 7 -15 15 0 8 -7 15 -15 15 -8 0 -15 7 -15 15 0 8 -7 15
-15 15 -8 0 -15 7 -15 15 0 8 -7 15 -15 15 -8 0 -15 7 -15 15 0 8 -7 15 -15
15 -8 0 -15 7 -15 15 0 8 -7 15 -15 15 -8 0 -15 7 -15 15 0 8 -7 15 -15 15 -8
0 -15 7 -15 15 0 8 -7 15 -15 15 -8 0 -15 7 -15 15 0 8 -7 15 -15 15 -8 0 -15
7 -15 15 0 8 -7 15 -15 15 -8 0 -15 7 -15 15 0 8 -7 15 -15 15 -8 0 -15 7 -15
15 0 8 -7 15 -15 15 -8 0 -15 7 -15 15 0 8 -7 15 -15 15 -8 0 -15 7 -15 15 0
8 -7 15 -15 15 -8 0 -15 7 -15 15 0 8 -7 15 -15 15 -8 0 -15 7 -15 15 0 8 -7
15 -15 15 -10 0 -15 10 -15 30 0 20 5 30 15 30 8 0 15 -7 15 -15 0 -10 10 -15
30 -15 20 0 30 -5 30 -15 0 -8 7 -15 15 -15 8 0 15 -7 15 -15 0 -8 7 -15 15
-15 8 0 15 -7 15 -15 0 -12 15 -15 75 -15 60 0 75 -3 75 -15 0 -8 7 -15 15
-15 8 0 15 -7 15 -15 0 -8 7 -15 15 -15 8 0 15 -7 15 -15 0 -8 7 -15 15 -15 8
0 15 -7 15 -15 0 -8 7 -15 15 -15 8 0 15 -7 15 -15 0 -8 7 -15 15 -15 8 0 15
-7 15 -15 0 -8 7 -15 15 -15 8 0 15 -7 15 -15 0 -8 7 -15 15 -15 8 0 15 -7 15
-15 0 -8 7 -15 15 -15 8 0 15 -7 15 -15 0 -8 7 -15 15 -15 8 0 15 -7 15 -15 0
-8 7 -15 15 -15 8 0 15 -7 15 -15 0 -8 7 -15 15 -15 8 0 15 -7 15 -15 0 -8 7
-15 15 -15 8 0 15 -7 15 -15 0 -8 7 -15 15 -15 8 0 15 -7 15 -15 0 -8 7 -15
15 -15 8 0 15 -7 15 -15 0 -8 7 -15 15 -15 8 0 15 -7 15 -15 0 -8 7 -15 15
-15 8 0 15 -7 15 -15 0 -10 10 -15 30 -15 20 0 30 5 30 15 0 8 -7 15 -15 15
-8 0 -15 7 -15 15 0 10 -10 15 -30 15 -20 0 -30 5 -30 15 0 8 -7 15 -15 15 -8
0 -15 7 -15 15 0 8 -7 15 -15 15 -8 0 -15 7 -15 15 0 8 -7 15 -15 15 -8 0 -15
7 -15 15 0 8 -7 15 -15 15 -8 0 -15 7 -15 15 0 8 -7 15 -15 15 -8 0 -15 7 -15
15 0 8 -7 15 -15 15 -8 0 -15 7 -15 15 0 8 -7 15 -15 15 -8 0 -15 7 -15 15 0
8 -7 15 -15 15 -8 0 -15 7 -15 15 0 8 -7 15 -15 15 -8 0 -15 7 -15 15 0 12 17
15 90 15 73 0 90 3 90 15 0 10 10 15 30 15 l30 0 0 90 0 90 45 0 c33 0 45 -4
45 -15 0 -10 10 -15 30 -15 20 0 30 -5 30 -15 0 -11 12 -15 45 -15 33 0 45 -4
45 -15 0 -12 15 -15 75 -15 60 0 75 3 75 15 0 11 12 15 45 15 33 0 45 4 45 15
0 10 10 15 30 15 20 0 30 5 30 15 0 11 12 15 45 15 l45 0 0 -90 0 -90 30 0
c20 0 30 -5 30 -15 0 -12 17 -15 90 -15 73 0 90 -3 90 -15 0 -8 -7 -15 -15
-15 -8 0 -15 -7 -15 -15 0 -8 -7 -15 -15 -15 -8 0 -15 -7 -15 -15 0 -8 -7 -15
-15 -15 -8 0 -15 -7 -15 -15 0 -8 -7 -15 -15 -15 -8 0 -15 -7 -15 -15 0 -8 -7
-15 -15 -15 -8 0 -15 -7 -15 -15 0 -8 -7 -15 -15 -15 -8 0 -15 -7 -15 -15 0
-8 -7 -15 -15 -15 -8 0 -15 -7 -15 -15 0 -8 -7 -15 -15 -15 -8 0 -15 -7 -15
-15 0 -10 -10 -15 -30 -15 -20 0 -30 -5 -30 -15 0 -8 -7 -15 -15 -15 -8 0 -15
-7 -15 -15 0 -8 7 -15 15 -15 8 0 15 7 15 15 0 10 10 15 30 15 20 0 30 5 30
15 0 8 7 15 15 15 8 0 15 7 15 15 0 8 7 15 15 15 8 0 15 7 15 15 0 8 7 15 15
15 8 0 15 7 15 15 0 8 7 15 15 15 8 0 15 7 15 15 0 8 7 15 15 15 8 0 15 7 15
15 0 8 7 15 15 15 8 0 15 7 15 15 0 8 7 15 15 15 8 0 15 7 15 15 0 10 10 15
30 15 20 0 30 5 30 15 0 8 7 15 15 15 8 0 15 7 15 15 0 8 7 15 15 15 8 0 15 7
15 15 0 10 10 15 30 15 20 0 30 5 30 15 0 8 7 15 15 15 8 0 15 7 15 15 0 10
10 15 30 15 20 0 30 5 30 15 0 8 7 15 15 15 8 0 15 7 15 15 0 8 7 15 15 15 8
0 15 7 15 15 0 10 10 15 30 15 20 0 30 -5 30 -15 0 -8 7 -15 15 -15 11 0 15
12 15 45 0 33 4 45 15 45 12 0 15 13 15 60 0 47 3 60 15 60 12 0 15 18 15 105
0 87 3 105 15 105 13 0 15 22 15 135 0 113 -2 135 -15 135 -12 0 -15 -17 -15
-90 0 -73 -3 -90 -15 -90 -10 0 -15 -10 -15 -30 0 -20 -5 -30 -15 -30 -8 0
-15 -7 -15 -15 0 -8 -7 -15 -15 -15 -8 0 -15 -7 -15 -15 0 -10 -10 -15 -30
-15 -20 0 -30 -5 -30 -15 0 -10 -10 -15 -30 -15 -20 0 -30 -5 -30 -15 0 -8 -7
-15 -15 -15 -8 0 -15 -7 -15 -15 0 -10 -10 -15 -30 -15 -20 0 -30 -5 -30 -15
0 -10 -10 -15 -30 -15 -20 0 -30 -5 -30 -15 0 -10 -10 -15 -30 -15 -20 0 -30
-5 -30 -15 0 -10 -10 -15 -30 -15 -20 0 -30 -5 -30 -15 0 -10 -10 -15 -30 -15
-20 0 -30 -5 -30 -15 0 -11 -12 -15 -45 -15 -33 0 -45 -4 -45 -15 0 -10 -10
-15 -30 -15 -20 0 -30 -5 -30 -15 0 -11 -12 -15 -45 -15 -33 0 -45 -4 -45 -15
0 -10 -10 -15 -30 -15 -20 0 -30 -5 -30 -15 0 -11 -12 -15 -45 -15 -33 0 -45
-4 -45 -15 0 -12 -15 -15 -75 -15 -60 0 -75 3 -75 15 0 11 -12 15 -45 15 -33
0 -45 4 -45 15 0 10 -10 15 -30 15 -20 0 -30 5 -30 15 0 11 -12 15 -45 15 -33
0 -45 4 -45 15 0 10 -10 15 -30 15 -20 0 -30 5 -30 15 0 11 -12 15 -45 15 -33
0 -45 4 -45 15 0 10 -10 15 -30 15 -20 0 -30 5 -30 15 0 10 -10 15 -30 15 -20
0 -30 5 -30 15 0 10 -10 15 -30 15 -20 0 -30 5 -30 15 0 10 -10 15 -30 15 -20
0 -30 5 -30 15 0 10 -10 15 -30 15 -20 0 -30 5 -30 15 0 8 -7 15 -15 15 -8 0
-15 7 -15 15 0 10 -10 15 -30 15 -20 0 -30 5 -30 15 0 8 -7 15 -15 15 -8 0
-15 7 -15 15 0 8 -7 15 -15 15 -8 0 -15 7 -15 15 0 8 -7 15 -15 15 -11 0 -15
12 -15 45 0 33 -4 45 -15 45 -12 0 -15 18 -15 105 0 87 3 105 15 105 8 0 15 7
15 15 0 11 -12 15 -45 15 -33 0 -45 4 -45 15 0 10 -10 15 -30 15 -20 0 -30 5
-30 15 0 8 -7 15 -15 15 -8 0 -15 7 -15 15 0 8 -7 15 -15 15 -10 0 -15 10 -15
30 0 20 -5 30 -15 30 -12 0 -15 13 -15 60 0 47 -3 60 -15 60 -8 0 -15 7 -15
15 0 8 -7 15 -15 15 -12 0 -15 -13 -15 -60z m60 -120 c0 -20 5 -30 15 -30 8 0
15 -7 15 -15 0 -8 7 -15 15 -15 8 0 15 -7 15 -15 0 -8 7 -15 15 -15 8 0 15 -7
15 -15 0 -8 7 -15 15 -15 8 0 15 -7 15 -15 0 -8 7 -15 15 -15 11 0 15 -12 15
-45 0 -33 4 -45 15 -45 12 0 15 -17 15 -90 0 -73 3 -90 15 -90 12 0 15 -13 15
-60 0 -47 3 -60 15 -60 8 0 15 -7 15 -15 0 -8 7 -15 15 -15 12 0 15 -13 15
-60 0 -47 3 -60 15 -60 11 0 15 -12 15 -45 0 -33 4 -45 15 -45 10 0 15 -10 15
-30 0 -20 5 -30 15 -30 8 0 15 -7 15 -15 0 -10 -10 -15 -30 -15 -20 0 -30 5
-30 15 0 8 -7 15 -15 15 -8 0 -15 7 -15 15 0 8 -7 15 -15 15 -8 0 -15 7 -15
15 0 8 -7 15 -15 15 -8 0 -15 7 -15 15 0 8 -7 15 -15 15 -8 0 -15 7 -15 15 0
8 -7 15 -15 15 -8 0 -15 7 -15 15 0 8 -7 15 -15 15 -8 0 -15 7 -15 15 0 8 -7
15 -15 15 -8 0 -15 7 -15 15 0 8 -7 15 -15 15 -10 0 -15 10 -15 30 0 20 -5 30
-15 30 -10 0 -15 10 -15 30 0 20 -5 30 -15 30 -12 0 -15 15 -15 75 0 60 -3 75
-15 75 -13 0 -15 28 -15 195 0 167 2 195 15 195 10 0 15 -10 15 -30z m30 -705
c0 -33 -4 -45 -15 -45 -11 0 -15 12 -15 45 0 33 4 45 15 45 11 0 15 -12 15
-45z m-30 -165 c0 -47 -3 -60 -15 -60 -12 0 -15 13 -15 60 0 47 3 60 15 60 12
0 15 -13 15 -60z"/>
<path d="M3210 1620 c0 -47 -3 -60 -15 -60 -11 0 -15 -12 -15 -45 0 -33 -4
-45 -15 -45 -8 0 -15 7 -15 15 0 8 -7 15 -15 15 -12 0 -15 -18 -15 -105 0 -87
3 -105 15 -105 8 0 15 7 15 15 0 8 7 15 15 15 11 0 15 12 15 45 0 33 4 45 15
45 11 0 15 12 15 45 0 33 4 45 15 45 12 0 15 17 15 90 0 73 -3 90 -15 90 -12
0 -15 -13 -15 -60z"/>
<path d="M1050 1575 c0 -10 10 -15 30 -15 20 0 30 5 30 15 0 10 -10 15 -30 15
-20 0 -30 -5 -30 -15z"/>
<path d="M1200 1575 c0 -10 -10 -15 -30 -15 -20 0 -30 -5 -30 -15 0 -8 7 -15
15 -15 8 0 15 -7 15 -15 0 -12 18 -15 105 -15 87 0 105 -3 105 -15 0 -8 7 -15
15 -15 8 0 15 -7 15 -15 0 -10 10 -15 30 -15 20 0 30 5 30 15 0 8 -7 15 -15
15 -8 0 -15 7 -15 15 0 8 7 15 15 15 8 0 15 7 15 15 0 11 -12 15 -45 15 -33 0
-45 4 -45 15 0 8 7 15 15 15 8 0 15 7 15 15 0 8 -7 15 -15 15 -8 0 -15 -7 -15
-15 0 -12 -15 -15 -75 -15 -60 0 -75 3 -75 15 0 8 -7 15 -15 15 -8 0 -15 -7
-15 -15z"/>
<path d="M2250 1560 c0 -20 5 -30 15 -30 8 0 15 -7 15 -15 0 -8 7 -15 15 -15
10 0 15 10 15 30 0 20 -5 30 -15 30 -8 0 -15 7 -15 15 0 8 -7 15 -15 15 -10 0
-15 -10 -15 -30z"/>
<path d="M2400 1545 c0 -33 -4 -45 -15 -45 -8 0 -15 -7 -15 -15 0 -8 -7 -15
-15 -15 -8 0 -15 -7 -15 -15 0 -8 7 -15 15 -15 8 0 15 7 15 15 0 8 7 15 15 15
8 0 15 7 15 15 0 8 7 15 15 15 10 0 15 -10 15 -30 0 -20 5 -30 15 -30 8 0 15
7 15 15 0 8 7 15 15 15 8 0 15 7 15 15 0 12 15 15 75 15 60 0 75 3 75 15 0 8
7 15 15 15 8 0 15 7 15 15 0 10 -10 15 -30 15 -20 0 -30 5 -30 15 0 8 -7 15
-15 15 -8 0 -15 -7 -15 -15 0 -11 -12 -15 -45 -15 -33 0 -45 -4 -45 -15 0 -10
-10 -15 -30 -15 -27 0 -30 3 -30 30 0 20 -5 30 -15 30 -11 0 -15 -12 -15 -45z"/>
<path d="M2700 1575 c0 -10 10 -15 30 -15 20 0 30 5 30 15 0 10 -10 15 -30 15
-20 0 -30 -5 -30 -15z"/>
<path d="M2880 1575 c0 -8 7 -15 15 -15 8 0 15 7 15 15 0 8 -7 15 -15 15 -8 0
-15 -7 -15 -15z"/>
<path d="M3030 1530 c0 -20 -5 -30 -15 -30 -8 0 -15 -7 -15 -15 0 -8 -7 -15
-15 -15 -8 0 -15 -7 -15 -15 0 -8 -7 -15 -15 -15 -8 0 -15 -7 -15 -15 0 -8 -7
-15 -15 -15 -8 0 -15 -7 -15 -15 0 -10 -10 -15 -30 -15 -20 0 -30 -5 -30 -15
0 -10 -10 -15 -30 -15 -20 0 -30 -5 -30 -15 0 -10 -10 -15 -30 -15 -20 0 -30
5 -30 15 0 8 7 15 15 15 8 0 15 7 15 15 0 8 7 15 15 15 8 0 15 7 15 15 0 8 7
15 15 15 8 0 15 7 15 15 0 8 7 15 15 15 8 0 15 7 15 15 0 8 -7 15 -15 15 -8 0
-15 -7 -15 -15 0 -8 -7 -15 -15 -15 -8 0 -15 -7 -15 -15 0 -8 -7 -15 -15 -15
-8 0 -15 -7 -15 -15 0 -8 -7 -15 -15 -15 -8 0 -15 -7 -15 -15 0 -8 -7 -15 -15
-15 -10 0 -15 -10 -15 -30 0 -29 2 -30 45 -30 33 0 45 4 45 15 0 10 10 15 30
15 20 0 30 5 30 15 0 10 10 15 30 15 20 0 30 5 30 15 0 8 7 15 15 15 8 0 15
-7 15 -15 0 -8 7 -15 15 -15 11 0 15 12 15 45 0 33 4 45 15 45 8 0 15 7 15 15
0 8 7 15 15 15 8 0 15 7 15 15 0 8 7 15 15 15 10 0 15 10 15 30 0 20 -5 30
-15 30 -10 0 -15 -10 -15 -30z"/>
<path d="M2850 1515 c0 -8 7 -15 15 -15 8 0 15 7 15 15 0 8 -7 15 -15 15 -8 0
-15 -7 -15 -15z"/>
<path d="M2160 1470 c0 -20 5 -30 15 -30 8 0 15 -7 15 -15 0 -8 7 -15 15 -15
10 0 15 10 15 30 0 20 -5 30 -15 30 -8 0 -15 7 -15 15 0 8 -7 15 -15 15 -10 0
-15 -10 -15 -30z"/>
<path d="M1890 1350 c0 -20 5 -30 15 -30 10 0 15 10 15 30 0 20 -5 30 -15 30
-10 0 -15 -10 -15 -30z"/>
<path d="M300 1275 c0 -33 4 -45 15 -45 11 0 15 12 15 45 0 33 -4 45 -15 45
-11 0 -15 -12 -15 -45z"/>
<path d="M270 1125 c0 -33 -4 -45 -15 -45 -8 0 -15 -7 -15 -15 0 -8 -7 -15
-15 -15 -8 0 -15 -7 -15 -15 0 -8 -7 -15 -15 -15 -8 0 -15 -7 -15 -15 0 -10
-10 -15 -30 -15 -20 0 -30 -5 -30 -15 0 -10 -10 -15 -30 -15 -20 0 -30 -5 -30
-15 0 -8 -7 -15 -15 -15 -8 0 -15 -7 -15 -15 0 -8 7 -15 15 -15 8 0 15 7 15
15 0 10 10 15 30 15 27 0 30 -3 30 -30 0 -20 5 -30 15 -30 10 0 15 -10 15 -30
0 -20 5 -30 15 -30 8 0 15 -7 15 -15 0 -8 7 -15 15 -15 12 0 15 -15 15 -75 0
-60 3 -75 15 -75 13 0 15 23 15 150 0 127 2 150 15 150 12 0 15 15 15 75 0 60
3 75 15 75 11 0 15 12 15 45 0 33 -4 45 -15 45 -11 0 -15 -12 -15 -45z"/>
<path d="M60 1095 c0 -8 -7 -15 -15 -15 -8 0 -15 -7 -15 -15 0 -8 -7 -15 -15
-15 -8 0 -15 -7 -15 -15 0 -8 7 -15 15 -15 8 0 15 7 15 15 0 8 7 15 15 15 8 0
15 7 15 15 0 8 7 15 15 15 8 0 15 7 15 15 0 8 -7 15 -15 15 -8 0 -15 -7 -15
-15z"/>
<path d="M2010 1020 c0 -29 -2 -30 -45 -30 -33 0 -45 -4 -45 -15 0 -8 -7 -15
-15 -15 -8 0 -15 -7 -15 -15 0 -10 10 -15 30 -15 20 0 30 5 30 15 0 11 12 15
45 15 33 0 45 -4 45 -15 0 -8 7 -15 15 -15 8 0 15 7 15 15 0 8 -7 15 -15 15
-11 0 -15 12 -15 45 0 33 -4 45 -15 45 -10 0 -15 -10 -15 -30z"/>
<path d="M3480 945 c0 -60 3 -75 15 -75 12 0 15 15 15 75 0 60 -3 75 -15 75
-12 0 -15 -15 -15 -75z"/>
<path d="M3780 990 c0 -20 -5 -30 -15 -30 -8 0 -15 -7 -15 -15 0 -8 -7 -15
-15 -15 -10 0 -15 -10 -15 -30 0 -20 -5 -30 -15 -30 -8 0 -15 -7 -15 -15 0 -8
-7 -15 -15 -15 -11 0 -15 -12 -15 -45 0 -33 -4 -45 -15 -45 -8 0 -15 -7 -15
-15 0 -8 -7 -15 -15 -15 -10 0 -15 -10 -15 -30 0 -20 -5 -30 -15 -30 -10 0
-15 -10 -15 -30 0 -20 -5 -30 -15 -30 -10 0 -15 -10 -15 -30 0 -20 -5 -30 -15
-30 -8 0 -15 -7 -15 -15 0 -8 7 -15 15 -15 10 0 15 -10 15 -30 0 -20 5 -30 15
-30 13 0 15 -32 15 -225 l0 -225 60 0 60 0 0 30 c0 20 -5 30 -15 30 -12 0 -15
18 -15 105 0 87 3 105 15 105 8 0 15 -7 15 -15 0 -8 7 -15 15 -15 8 0 15 -7
15 -15 0 -8 7 -15 15 -15 8 0 15 -7 15 -15 0 -8 7 -15 15 -15 8 0 15 -7 15
-15 0 -8 7 -15 15 -15 8 0 15 7 15 15 0 8 -7 15 -15 15 -8 0 -15 7 -15 15 0 8
-7 15 -15 15 -8 0 -15 7 -15 15 0 8 -7 15 -15 15 -8 0 -15 7 -15 15 0 8 -7 15
-15 15 -12 0 -15 17 -15 90 0 73 -3 90 -15 90 -12 0 -15 13 -15 60 0 47 -3 60
-15 60 -8 0 -15 7 -15 15 0 8 7 15 15 15 11 0 15 12 15 45 0 33 4 45 15 45 12
0 15 15 15 75 0 60 3 75 15 75 8 0 15 7 15 15 0 8 7 15 15 15 12 0 15 -13 15
-60 0 -47 3 -60 15 -60 12 0 15 -17 15 -90 0 -73 3 -90 15 -90 13 0 15 32 15
225 0 193 -2 225 -15 225 -10 0 -15 -10 -15 -30z"/>
<path d="M3030 885 c0 -33 -4 -45 -15 -45 -11 0 -15 -12 -15 -45 0 -33 -4 -45
-15 -45 -10 0 -15 -10 -15 -30 0 -20 -5 -30 -15 -30 -10 0 -15 -10 -15 -30 0
-20 -5 -30 -15 -30 -10 0 -15 -10 -15 -30 0 -20 -5 -30 -15 -30 -8 0 -15 -7
-15 -15 0 -8 -7 -15 -15 -15 -8 0 -15 -7 -15 -15 0 -8 -7 -15 -15 -15 -8 0
-15 -7 -15 -15 0 -10 -10 -15 -30 -15 -20 0 -30 5 -30 15 0 8 7 15 15 15 8 0
15 7 15 15 0 8 -7 15 -15 15 -8 0 -15 -7 -15 -15 0 -8 -7 -15 -15 -15 -8 0
-15 -7 -15 -15 0 -8 7 -15 15 -15 8 0 15 -7 15 -15 0 -8 -7 -15 -15 -15 -8 0
-15 -7 -15 -15 0 -8 -7 -15 -15 -15 -8 0 -15 -7 -15 -15 0 -10 -10 -15 -30
-15 -20 0 -30 -5 -30 -15 0 -10 -10 -15 -30 -15 -20 0 -30 -5 -30 -15 0 -8 -7
-15 -15 -15 -8 0 -15 -7 -15 -15 0 -10 -10 -15 -30 -15 -20 0 -30 -5 -30 -15
0 -8 -7 -15 -15 -15 -8 0 -15 -7 -15 -15 0 -10 -10 -15 -30 -15 -20 0 -30 -5
-30 -15 0 -10 -10 -15 -30 -15 -20 0 -30 -5 -30 -15 0 -10 -10 -15 -30 -15
-20 0 -30 -5 -30 -15 0 -8 -7 -15 -15 -15 -8 0 -15 -7 -15 -15 0 -10 -10 -15
-30 -15 -20 0 -30 -5 -30 -15 0 -8 -7 -15 -15 -15 -8 0 -15 -7 -15 -15 0 -10
-10 -15 -30 -15 -20 0 -30 -5 -30 -15 0 -8 -7 -15 -15 -15 -8 0 -15 -7 -15
-15 0 -12 13 -15 60 -15 47 0 60 3 60 15 0 10 10 15 30 15 20 0 30 5 30 15 0
10 10 15 30 15 20 0 30 5 30 15 0 10 10 15 30 15 20 0 30 5 30 15 0 10 10 15
30 15 20 0 30 5 30 15 0 10 10 15 30 15 20 0 30 5 30 15 0 10 10 15 30 15 20
0 30 5 30 15 0 8 7 15 15 15 8 0 15 7 15 15 0 8 7 15 15 15 8 0 15 7 15 15 0
8 7 15 15 15 8 0 15 7 15 15 0 8 7 15 15 15 8 0 15 7 15 15 0 8 7 15 15 15 8
0 15 7 15 15 0 8 7 15 15 15 8 0 15 7 15 15 0 8 7 15 15 15 8 0 15 7 15 15 0
8 7 15 15 15 8 0 15 7 15 15 0 8 7 15 15 15 8 0 15 7 15 15 0 8 7 15 15 15 8
0 15 7 15 15 0 8 7 15 15 15 8 0 15 7 15 15 0 8 7 15 15 15 8 0 15 -7 15 -15
0 -8 7 -15 15 -15 11 0 15 -12 15 -45 0 -33 4 -45 15 -45 10 0 15 -10 15 -30
0 -20 5 -30 15 -30 12 0 15 18 15 105 0 87 3 105 15 105 12 0 15 18 15 105 0
87 3 105 15 105 12 0 15 15 15 75 0 60 -3 75 -15 75 -11 0 -15 -12 -15 -45z"/>
<path d="M3360 840 c0 -47 3 -60 15 -60 12 0 15 13 15 60 0 47 -3 60 -15 60
-12 0 -15 -13 -15 -60z"/>
<path d="M2790 585 c0 -8 7 -15 15 -15 8 0 15 7 15 15 0 8 -7 15 -15 15 -8 0
-15 -7 -15 -15z"/>
<path d="M3330 420 c0 -153 2 -180 15 -180 13 0 15 27 15 180 0 153 -2 180
-15 180 -13 0 -15 -27 -15 -180z"/>
<path d="M180 435 l0 -105 -30 0 -30 0 0 -60 c0 -47 -3 -60 -15 -60 -12 0 -15
-18 -15 -105 l0 -105 45 0 45 0 0 105 c0 87 3 105 15 105 13 0 15 25 15 165 0
140 -2 165 -15 165 -12 0 -15 -18 -15 -105z"/>
<path d="M1650 390 c0 -20 5 -30 15 -30 10 0 15 -10 15 -30 0 -20 5 -30 15
-30 10 0 15 -10 15 -30 0 -20 5 -30 15 -30 10 0 15 10 15 30 0 20 -5 30 -15
30 -10 0 -15 10 -15 30 0 20 -5 30 -15 30 -10 0 -15 10 -15 30 0 20 -5 30 -15
30 -10 0 -15 -10 -15 -30z"/>
<path d="M2130 390 c0 -20 -5 -30 -15 -30 -10 0 -15 -10 -15 -30 0 -20 -5 -30
-15 -30 -10 0 -15 -10 -15 -30 0 -20 5 -30 15 -30 10 0 15 10 15 30 0 20 5 30
15 30 10 0 15 10 15 30 0 20 5 30 15 30 10 0 15 10 15 30 0 20 -5 30 -15 30
-10 0 -15 -10 -15 -30z"/>
<path d="M0 300 c0 -20 5 -30 15 -30 8 0 15 7 15 15 0 8 7 15 15 15 8 0 15 7
15 15 0 10 -10 15 -30 15 -27 0 -30 -3 -30 -30z"/>
<path d="M2940 315 c0 -8 -7 -15 -15 -15 -8 0 -15 -7 -15 -15 0 -10 -10 -15
-30 -15 -20 0 -30 -5 -30 -15 0 -11 -12 -15 -45 -15 -33 0 -45 -4 -45 -15 0
-11 -12 -15 -45 -15 -33 0 -45 -4 -45 -15 0 -10 -10 -15 -30 -15 -20 0 -30 -5
-30 -15 0 -8 -7 -15 -15 -15 -8 0 -15 -7 -15 -15 0 -8 -7 -15 -15 -15 -8 0
-15 -7 -15 -15 0 -10 -10 -15 -30 -15 -20 0 -30 -5 -30 -15 0 -10 -10 -15 -30
-15 -20 0 -30 -5 -30 -15 0 -10 -10 -15 -30 -15 -20 0 -30 -5 -30 -15 0 -13
27 -15 180 -15 153 0 180 2 180 15 0 10 10 15 30 15 20 0 30 5 30 15 0 8 7 15
15 15 8 0 15 7 15 15 0 8 7 15 15 15 8 0 15 7 15 15 0 8 7 15 15 15 8 0 15 7
15 15 0 8 7 15 15 15 10 0 15 10 15 30 0 20 5 30 15 30 11 0 15 -12 15 -45 0
-33 4 -45 15 -45 12 0 15 18 15 105 0 87 -3 105 -15 105 -8 0 -15 -7 -15 -15z"/>
<path d="M540 240 c0 -47 3 -60 15 -60 12 0 15 13 15 60 0 47 -3 60 -15 60
-12 0 -15 -13 -15 -60z"/>
<path d="M2070 135 c0 -8 7 -15 15 -15 8 0 15 7 15 15 0 8 -7 15 -15 15 -8 0
-15 -7 -15 -15z"/>
<path d="M3300 75 c0 -60 3 -75 15 -75 12 0 15 15 15 75 0 60 -3 75 -15 75
-12 0 -15 -15 -15 -75z"/>
<path d="M1740 105 c0 -10 10 -15 30 -15 20 0 30 -5 30 -15 0 -12 17 -15 90
-15 73 0 90 3 90 15 0 12 -17 15 -90 15 -73 0 -90 3 -90 15 0 10 -10 15 -30
15 -20 0 -30 -5 -30 -15z"/>
<path d="M2010 105 c0 -8 7 -15 15 -15 8 0 15 7 15 15 0 8 -7 15 -15 15 -8 0
-15 -7 -15 -15z"/>
<path d="M570 60 c0 -20 5 -30 15 -30 10 0 15 10 15 30 0 20 -5 30 -15 30 -10
0 -15 -10 -15 -30z"/>
<path d="M2910 30 c0 -20 5 -30 15 -30 10 0 15 10 15 30 0 20 -5 30 -15 30
-10 0 -15 -10 -15 -30z"/>
</g>
</svg>
