<svg xmlns="http://www.w3.org/2000/svg" width="32" height="30.5" viewBox="0 0 32 30.5">
  <path id="ALARM" d="M420.74,2319.5a15.72,15.72,0,0,0-8.242-8.243,5.869,5.869,0,0,1,8.242,8.243Zm-.24,6.5a14.435,14.435,0,0,1-3.962,9.94l2.028,2.028a1.483,1.483,0,1,1-2.1,2.1l-2.178-2.178a14.457,14.457,0,0,1-16.566.01l-2.163,2.164a1.5,1.5,0,0,1-2.121-2.121l2.012-2.012A14.494,14.494,0,1,1,420.5,2326ZM406,2314.5a11.5,11.5,0,1,0,11.5,11.5A11.5,11.5,0,0,0,406,2314.5Zm6,13h-6a1.5,1.5,0,0,1-1.5-1.5v-8a1.5,1.5,0,0,1,3,0v6.5H412a1.5,1.5,0,0,1,0,3Zm-20.713-7.794a5.994,5.994,0,0,1,8.419-8.419A16.056,16.056,0,0,0,391.287,2319.706Z" transform="translate(-390 -2310)" fill="#95e1d3"/>
</svg>
