<svg xmlns="http://www.w3.org/2000/svg" width="224" height="56" viewBox="0 0 224 56">
  <g id="share" transform="translate(-428 -5297)">
    <rect id="Rectangle_15" data-name="Rectangle 15" width="224" height="56" transform="translate(428 5297)" fill="#fce38a"/>
    <rect id="Rectangle_16" data-name="Rectangle 16" width="56" height="56" transform="translate(428 5297)" fill="#f38181"/>
    <rect id="Shape_3_copy" data-name="Shape 3 copy" width="0.8" height="56" transform="translate(483.1 5297)" fill="#f38181" opacity="0.502"/>
    <rect id="Shape_3_copy_2" data-name="Shape 3 copy 2" width="0.8" height="56" transform="translate(539.1 5297)" fill="#f38181" opacity="0.502"/>
    <rect id="Shape_3_copy_3" data-name="Shape 3 copy 3" width="0.8" height="56" transform="translate(595.1 5297)" fill="#f38181" opacity="0.502"/>
    <path id="facebook" d="M463.089,5312.2v4.121s-3.038-.3-3.8.861c-.416.636-.169,2.5-.206,3.837h4.029c-.341,1.565-.585,2.625-.835,3.979h-3.217v12.8h-5.582c0-3.947,0-8.552,0-12.753h-2.375v-4.029h2.349c.12-2.945.166-5.864,1.629-7.35C456.728,5312,458.3,5312.2,463.089,5312.2Z" fill="#fff"/>
    <path id="instagram" d="M632.7,5337.8H613.5a3.2,3.2,0,0,1-3.2-3.2v-19.2a3.2,3.2,0,0,1,3.2-3.2h19.2a3.2,3.2,0,0,1,3.2,3.2v19.2A3.2,3.2,0,0,1,632.7,5337.8Zm-9.6-17.76a4.957,4.957,0,0,0-4.5,2.88h0c-.008.018-.014.037-.022.055-.047.1-.089.213-.129.321-.019.053-.04.1-.057.156-.036.111-.067.225-.1.34-.013.054-.029.106-.041.16-.026.121-.044.244-.061.368-.007.05-.017.1-.023.15a4.96,4.96,0,1,0,9.862,0c-.005-.051-.016-.1-.023-.15-.017-.124-.035-.247-.061-.368-.012-.054-.028-.106-.041-.16-.029-.115-.059-.229-.1-.34-.017-.052-.038-.1-.057-.156-.04-.108-.081-.216-.129-.321-.008-.018-.014-.037-.022-.055h0A4.957,4.957,0,0,0,623.1,5320.04Zm9.92-3.68a1.28,1.28,0,0,0-1.28-1.28h-2.56a1.28,1.28,0,0,0-1.28,1.28v2.561a1.28,1.28,0,0,0,1.28,1.28h2.56a1.28,1.28,0,0,0,1.28-1.28Zm0,6.56h-2.36a7.84,7.84,0,1,1-15.121,0h-2.36v10.72a1.28,1.28,0,0,0,1.28,1.281h17.28a1.28,1.28,0,0,0,1.28-1.281Z" fill="#f38181"/>
    <path id="pinterest" d="M566.051,5328.854c-.209.833-.42,1.707-.638,2.561a19.56,19.56,0,0,1-.718,2.47,12.648,12.648,0,0,1-2.044,3.521c-.575.667-.452.4-.625.365-.132-.027-.144-.157-.169-.345a19.292,19.292,0,0,1,.008-3.339,18.041,18.041,0,0,1,.588-3.471c.484-2.064.946-4.087,1.435-6.164a1.369,1.369,0,0,0,.09-.445,6.41,6.41,0,0,1-.429-1.7,5.41,5.41,0,0,1,.139-1.943,3.208,3.208,0,0,1,1.894-2.338,2.171,2.171,0,0,1,1.734.132,1.883,1.883,0,0,1,.867,1.245,4.491,4.491,0,0,1-.08,1.892c-.267,1.218-.618,2.133-.937,3.309a3.642,3.642,0,0,0-.189,1.812,2.105,2.105,0,0,0,.848,1.275,2.464,2.464,0,0,0,1.625.456,3.552,3.552,0,0,0,2.652-1.568,9.269,9.269,0,0,0,1.674-4.686,11.514,11.514,0,0,0,.07-2.014,5.48,5.48,0,0,0-1.126-3.117,5.28,5.28,0,0,0-2.512-1.71,8.336,8.336,0,0,0-3.748-.233,6.636,6.636,0,0,0-4.914,3.533,7.078,7.078,0,0,0-.837,3.41,4.427,4.427,0,0,0,.678,2.5c.133.2.328.367.458.6.185.326-.029.812-.12,1.164-.11.425-.121,1.012-.618,1.022a1.512,1.512,0,0,1-.638-.243,5.117,5.117,0,0,1-2.422-3.734,8.937,8.937,0,0,1,0-3.238,9.214,9.214,0,0,1,4.4-6.144,10.441,10.441,0,0,1,3.907-1.346c.508-.075,1.034-.1,1.6-.132a9.638,9.638,0,0,1,4.326.81,8.848,8.848,0,0,1,2.98,2.146,8.123,8.123,0,0,1,1.834,3.31,7.977,7.977,0,0,1,.4,2.287,13.723,13.723,0,0,1-.308,2.368,9.328,9.328,0,0,1-3.838,6.458,6.643,6.643,0,0,1-1.754.81,6.409,6.409,0,0,1-2.243.283,4.6,4.6,0,0,1-1.984-.577A3.285,3.285,0,0,1,566.051,5328.854Z" fill="#f38181"/>
    <path id="twitter" d="M516.513,5314.6a5.4,5.4,0,0,1,4.151,1.647,8.494,8.494,0,0,0,2.691-.907l.653-.357a5.253,5.253,0,0,1-1.7,2.465,2.526,2.526,0,0,1-.577.409v.013a9.852,9.852,0,0,0,2.973-.8v.013a8.5,8.5,0,0,1-1.781,2.044l-.82.651a15.043,15.043,0,0,1-.243,3.373c-1.312,5.9-4.787,9.9-10.289,11.612a15.722,15.722,0,0,1-7.431.306,19.191,19.191,0,0,1-3.088-1.008,12.3,12.3,0,0,1-1.486-.767l-.461-.281a8.519,8.519,0,0,0,1.678.063c.516-.083,1.023-.061,1.5-.166a10.753,10.753,0,0,0,3.152-1.137,5.855,5.855,0,0,0,1.422-.932,4.474,4.474,0,0,1-1.563-.281,5.275,5.275,0,0,1-3.331-3.36c.515.057,2,.19,2.345-.1a3.844,3.844,0,0,1-1.717-.689,5.053,5.053,0,0,1-2.473-4.5l.538.255a5.776,5.776,0,0,0,1.1.307,1.569,1.569,0,0,0,.718.063h-.026c-.265-.307-.7-.513-.961-.843a5.365,5.365,0,0,1-1.179-4.765,6.1,6.1,0,0,1,.564-1.367l.026.012a3.2,3.2,0,0,0,.474.55,9.621,9.621,0,0,0,1.563,1.494,15.462,15.462,0,0,0,6.419,3.1,10.014,10.014,0,0,0,2.358.307,4.881,4.881,0,0,1,.026-2.466,5.179,5.179,0,0,1,2.973-3.525,6.3,6.3,0,0,1,1.166-.358Z" fill="#f38181"/>
  </g>
</svg>
