<svg xmlns="http://www.w3.org/2000/svg" width="32" height="32" viewBox="0 0 32 32">
  <path id="LINE_GRAPH" data-name="LINE GRAPH" d="M821.5,2341h-29a1.5,1.5,0,0,1-1.5-1.5v-29a1.5,1.5,0,0,1,1.5-1.5h29a1.5,1.5,0,0,1,1.5,1.5v29A1.5,1.5,0,0,1,821.5,2341Zm-1.5-29H794v26h26Zm-23.785,13.239h0l4-2.5h0a1.5,1.5,0,0,1,1.625.036l.006-.009,6.631,4.42,7.638-5.391a1.5,1.5,0,1,1,1.764,2.426h0l-8.5,6h0a1.5,1.5,0,0,1-1.74.012l-6.656-4.437-3.136,1.96a1.5,1.5,0,1,1-1.631-2.517Z" transform="translate(-791 -2309)" fill="#95e1d3"/>
</svg>
